# xmcd
#
# Track frame offsets: 
#        183
#        16123
#        51678
#        85873
#        103855
#        132790
#        160108
#
# Disc length: 2336 seconds
#
# Revision: 9
# Processed by: cddbd v1.5.2PL0 Copyright (c) Steve Scherf et al.
# Submitted via: ExactAudioCopy v0.99pb5
#
DISCID=53091e07
DTITLE=이병우 - 기타독집 1 내가 그린 기린 그림은-航海
DYEAR=1989
DGENRE=New Age
TTITLE0=새
TTITLE1=내가 그린 기린 그림은 - 航海
TTITLE2=사랑했지만
TTITLE3=비
TTITLE4=머플리와 나는 하루종일 바닷가에서
TTITLE5=4月
TTITLE6=이젠 안녕
EXTD=YEAR: 1989
EXTT0=
EXTT1=
EXTT2=
EXTT3=
EXTT4=
EXTT5=
EXTT6=
PLAYORDER=
